<?xml version="1.0" standalone="no"?>
<!DOCTYPE svg PUBLIC "-//W3C//DTD SVG 20010904//EN"
 "http://www.w3.org/TR/2001/REC-SVG-20010904/DTD/svg10.dtd">
<svg version="1.0" xmlns="http://www.w3.org/2000/svg"
 width="1243.000000pt" height="898.000000pt" viewBox="0 0 1243.000000 898.000000"
 preserveAspectRatio="xMidYMid meet">

<g transform="translate(0.000000,898.000000) scale(0.100000,-0.100000)"
fill="#000000" stroke="none">
<path d="M3840 8957 c-14 -13 -33 -28 -42 -33 -18 -10 -269 -254 -349 -340
-64 -69 -160 -182 -189 -224 -13 -19 -32 -40 -40 -47 -9 -7 -34 -38 -56 -70
-21 -32 -49 -69 -61 -82 l-22 -25 -78 18 c-43 10 -94 22 -113 27 -19 5 -67 9
-107 9 -67 0 -74 -2 -102 -31 -17 -17 -31 -35 -31 -41 0 -5 -8 -22 -18 -36
-10 -15 -27 -49 -37 -77 -10 -27 -24 -59 -31 -70 -7 -11 -20 -49 -29 -85 -9
-36 -21 -69 -26 -74 -5 -6 -9 -19 -9 -30 -1 -12 -9 -39 -20 -61 -11 -22 -19
-55 -20 -72 0 -18 -4 -33 -8 -33 -5 0 -16 -18 -25 -39 -10 -22 -24 -41 -31
-44 -8 -3 -54 1 -103 9 -48 8 -101 11 -116 8 -31 -6 -69 -43 -95 -89 -45 -83
-127 -307 -157 -430 -13 -55 -37 -145 -53 -200 -26 -87 -33 -100 -56 -108 -19
-6 -40 -5 -69 6 -80 30 -438 26 -597 -6 -101 -20 -169 -37 -205 -52 -16 -7
-46 -16 -65 -20 -62 -12 -161 -48 -212 -75 -10 -6 -22 -10 -28 -10 -6 0 -40
-13 -75 -30 -35 -16 -70 -30 -76 -30 -7 0 -20 -6 -28 -14 -17 -15 -102 -64
-161 -93 -19 -10 -57 -36 -85 -58 -27 -22 -67 -53 -88 -69 -76 -56 -127 -113
-127 -141 l0 -27 27 23 c15 13 44 41 65 62 34 34 73 63 216 160 80 54 319 177
345 177 7 0 21 6 32 13 11 8 29 16 40 20 11 3 52 17 90 32 78 30 127 43 200
54 28 5 70 13 95 19 216 55 505 53 730 -3 30 -7 82 -19 115 -25 33 -7 77 -21
97 -31 21 -11 44 -19 53 -19 16 0 21 -25 7 -34 -5 -3 -44 6 -87 20 -124 39
-186 47 -425 51 -194 3 -241 1 -341 -17 -112 -20 -424 -104 -444 -120 -5 -4
-28 -13 -50 -20 -22 -7 -60 -23 -85 -35 -25 -12 -72 -35 -105 -50 -33 -16 -79
-41 -103 -57 -24 -16 -61 -37 -82 -48 -64 -33 -171 -110 -269 -195 -32 -27
-72 -61 -89 -75 -25 -20 -31 -33 -32 -63 0 -36 1 -37 22 -26 13 7 39 28 58 46
19 19 56 45 82 58 26 14 49 29 53 35 15 25 316 185 410 218 33 12 85 31 115
42 243 93 522 152 800 167 240 14 251 11 223 -67 -9 -25 -16 -77 -17 -116 -1
-61 3 -76 27 -112 33 -51 34 -76 2 -106 -25 -23 -95 -34 -315 -52 -81 -6 -315
-46 -395 -68 -78 -21 -144 -37 -220 -53 -38 -8 -86 -22 -105 -30 -19 -8 -57
-22 -84 -30 -27 -8 -65 -23 -85 -34 -20 -10 -41 -19 -47 -19 -16 0 -153 -62
-199 -90 -41 -25 -75 -45 -131 -75 -17 -9 -55 -36 -83 -60 -29 -25 -65 -52
-82 -62 l-29 -17 0 -189 c0 -181 1 -188 19 -175 17 12 79 64 160 134 20 17 64
50 97 73 34 22 67 47 73 55 6 8 26 20 44 27 18 6 43 22 57 35 48 43 470 257
569 289 14 4 38 16 55 26 17 11 38 19 47 19 9 0 70 20 135 45 66 24 171 58
234 74 63 17 125 33 138 37 33 10 27 -8 -25 -71 -58 -69 -322 -335 -332 -335
-5 0 -19 -10 -33 -22 -65 -59 -90 -79 -120 -96 -40 -22 -91 -54 -98 -63 -3 -3
-17 -9 -33 -13 -15 -3 -27 -13 -27 -21 0 -11 6 -12 30 -4 17 6 30 15 30 20 0
5 11 9 25 9 14 0 28 6 31 14 3 8 13 17 22 20 50 17 228 153 304 232 26 27 64
65 85 85 42 41 80 82 167 182 50 58 105 97 137 97 18 0 8 -49 -14 -67 -66 -52
-70 -93 -31 -312 14 -80 24 -162 21 -182 -3 -20 -21 -70 -40 -110 -56 -116
-154 -378 -167 -444 -6 -33 -18 -80 -26 -105 -33 -105 -75 -316 -90 -455 -13
-117 -15 -208 -11 -410 6 -308 17 -378 94 -612 18 -56 33 -107 33 -113 0 -14
71 -160 77 -160 3 0 3 80 -1 177 -7 167 -1 286 23 463 5 36 14 106 21 155 11
85 44 210 60 228 13 15 39 -75 61 -211 11 -74 30 -159 41 -190 51 -145 53
-161 36 -268 -19 -114 -35 -193 -50 -246 -6 -21 -8 -71 -5 -115 16 -208 63
-677 83 -830 16 -116 16 -334 0 -350 -3 -3 -25 0 -49 7 -38 10 -49 9 -75 -4
-17 -9 -42 -16 -57 -16 -24 0 -25 2 -26 63 -1 202 -19 537 -29 563 -9 26 -19
34 -55 43 -86 22 -147 12 -164 -25 -6 -14 -21 -82 -33 -152 -20 -111 -23 -164
-23 -422 l-1 -295 -59 -11 c-71 -13 -122 -37 -152 -73 -45 -52 -91 -127 -97
-158 -8 -35 -30 -58 -46 -48 -5 3 -10 26 -10 50 0 24 -4 54 -9 68 -5 13 -19
68 -30 123 -17 79 -23 157 -29 396 l-9 297 -29 58 c-35 71 -72 89 -157 79 -52
-7 -55 -9 -76 -52 -41 -81 -50 -197 -52 -634 -1 -374 0 -416 21 -545 31 -198
47 -313 61 -443 14 -128 15 -127 -60 -156 -42 -16 -102 -60 -186 -137 -72 -65
-125 -87 -305 -131 -46 -11 -58 -19 -81 -53 -24 -37 -69 -144 -69 -165 0 -6
259 -10 701 -10 645 0 701 1 695 16 -4 9 -9 56 -13 104 -10 143 25 202 96 165
18 -9 40 -24 49 -33 10 -9 53 -47 97 -84 44 -36 102 -89 130 -117 l49 -51 189
0 c176 0 189 1 182 18 -4 9 -18 69 -31 132 -37 191 -53 262 -74 340 -12 41
-27 109 -35 150 -24 127 -48 226 -110 445 -21 74 -45 135 -61 155 -6 8 -21 33
-33 55 -42 78 -74 131 -120 195 -38 55 -45 72 -45 111 1 91 85 170 157 147 54
-16 76 -30 82 -50 4 -10 25 -41 47 -69 23 -29 51 -69 63 -90 12 -21 35 -53 51
-71 16 -18 41 -52 57 -75 15 -24 31 -43 36 -43 5 0 12 -16 15 -35 4 -19 16
-60 27 -92 11 -32 25 -76 30 -98 6 -22 21 -57 34 -77 14 -21 25 -40 25 -42 0
-3 5 -17 11 -33 6 -15 12 -62 14 -103 2 -41 11 -95 19 -119 10 -27 16 -77 16
-130 0 -56 5 -93 14 -106 7 -11 16 -54 19 -95 4 -41 13 -149 21 -239 9 -90 13
-168 10 -172 -3 -5 2 -9 10 -9 9 0 16 8 16 19 0 11 5 23 11 27 7 4 9 23 5 48
-19 145 -12 195 28 197 72 5 250 -5 300 -16 33 -8 70 -24 85 -38 49 -45 187
-127 214 -127 6 0 18 -7 27 -15 20 -18 86 -23 101 -8 20 20 23 97 5 131 -14
28 -95 92 -116 92 -5 0 -24 6 -42 14 -18 8 -49 21 -70 30 -20 9 -45 16 -56 16
-20 0 -145 57 -193 88 -14 9 -41 27 -60 39 -144 93 -262 231 -284 333 -4 19
-11 41 -16 50 -4 8 -15 55 -24 104 -18 98 -35 161 -67 251 -31 87 -34 154 -8
184 21 24 22 24 50 8 32 -20 83 -69 168 -166 31 -35 66 -75 77 -87 11 -13 28
-33 38 -46 71 -93 109 -138 117 -138 5 0 16 -12 25 -28 19 -31 95 -92 116 -92
8 0 -12 25 -43 55 -32 31 -58 58 -58 62 0 3 -28 38 -63 77 -34 39 -70 82 -79
96 -23 37 -119 140 -227 245 -36 34 -48 40 -86 40 -49 0 -71 -20 -90 -83 -5
-18 -14 -34 -20 -34 -5 0 -24 26 -40 58 -17 33 -52 88 -78 123 -26 35 -47 71
-45 80 2 8 18 24 36 34 42 25 161 67 189 67 37 0 35 18 -4 39 -51 27 -169 135
-200 184 -32 51 -69 189 -119 447 -28 145 -31 186 -23 325 7 151 22 236 45
273 13 19 13 32 4 70 -40 164 -40 355 1 617 13 85 53 169 95 201 36 28 50 29
92 9 46 -24 79 -68 91 -125 13 -62 13 -392 0 -510 -20 -173 -22 -366 -5 -438
8 -37 18 -119 21 -182 18 -348 24 -412 40 -437 9 -14 19 -22 22 -20 9 10 -18
291 -31 316 -16 30 -13 270 3 299 9 15 11 14 19 -8 12 -31 72 -89 72 -70 0 7
-4 27 -9 44 -40 128 -64 387 -60 624 5 225 25 246 79 84 11 -35 43 -110 70
-167 28 -57 50 -108 50 -115 0 -6 29 -64 65 -129 69 -126 76 -157 55 -246 -9
-40 -32 -217 -34 -265 0 -14 3 -90 7 -169 8 -142 0 -284 -25 -410 -14 -73 -72
-134 -137 -145 -50 -8 -68 3 -73 41 -5 40 -28 41 -28 2 0 -33 25 -113 43 -136
13 -18 27 -6 27 23 0 13 6 24 13 25 6 0 23 3 37 5 14 2 79 7 145 12 66 4 126
11 133 15 17 11 15 43 -14 207 -33 190 -52 555 -33 643 7 33 23 72 36 87 12
15 23 33 23 39 0 6 4 11 10 11 5 0 20 17 33 37 21 34 25 54 30 178 3 77 11
167 16 200 6 33 20 132 32 220 23 175 34 235 54 280 64 144 90 193 108 208 63
52 126 45 162 -17 25 -43 44 -142 45 -231 0 -50 -22 -174 -35 -195 -4 -6 -10
-35 -15 -63 -8 -58 -26 -137 -42 -182 -5 -16 -20 -78 -33 -136 -12 -58 -28
-115 -34 -127 -6 -11 -11 -37 -11 -57 0 -20 -5 -45 -11 -57 -26 -48 -59 -215
-59 -298 0 -85 -6 -163 -37 -440 -17 -160 -19 -400 -3 -537 5 -48 14 -152 20
-231 5 -78 15 -164 20 -190 11 -48 60 -192 85 -247 7 -16 19 -48 26 -70 7 -22
18 -50 26 -62 8 -12 13 -30 11 -39 -3 -15 -8 -13 -35 10 -17 14 -52 35 -77 46
-25 12 -48 25 -51 30 -10 16 -35 12 -29 -5 4 -8 11 -15 16 -15 10 0 73 -47
118 -89 14 -12 41 -31 61 -42 59 -29 147 -117 169 -166 30 -68 26 -144 -11
-247 -17 -48 -35 -88 -40 -91 -4 -3 -18 -27 -29 -53 -11 -25 -28 -54 -37 -64
-15 -17 2 -18 432 -18 l448 0 -7 123 c-4 67 -11 138 -16 157 -4 19 -11 114
-14 210 -6 163 -13 277 -51 855 -8 121 -22 351 -30 510 -8 160 -22 369 -30
465 -25 292 -46 510 -56 600 -5 47 -16 141 -24 210 -19 166 -30 248 -50 350
-25 127 -25 125 13 124 17 -1 32 0 32 3 0 11 -31 61 -45 73 -9 8 -38 46 -63
85 -25 38 -61 95 -81 125 -20 30 -45 75 -55 100 -11 25 -23 50 -28 56 -21 29
-82 156 -98 205 -10 31 -23 65 -29 75 -18 33 -79 227 -90 289 -6 33 -20 96
-30 140 -34 143 -41 179 -51 260 -5 44 -14 103 -19 130 -5 28 -15 151 -22 274
-17 311 -6 552 41 921 10 86 63 331 94 435 37 128 108 338 141 420 28 70 32
79 58 135 14 30 30 72 37 93 6 20 15 37 20 37 5 0 11 8 15 19 8 27 133 250
160 286 12 17 37 57 55 90 18 33 46 75 61 93 16 18 36 46 44 62 8 16 26 46 40
66 14 20 25 44 25 53 -1 27 -80 -68 -229 -276 -17 -22 -43 -65 -59 -95 -27
-49 -69 -115 -112 -178 -9 -14 -20 -35 -24 -47 -4 -12 -32 -64 -63 -115 -31
-51 -62 -108 -70 -127 -8 -18 -25 -50 -38 -71 -49 -78 -183 -357 -204 -425 -7
-22 -19 -53 -26 -70 -23 -50 -85 -212 -85 -221 0 -5 -24 -84 -54 -175 -30 -92
-57 -181 -61 -200 -4 -19 -17 -83 -30 -144 -28 -132 -50 -251 -65 -360 -6 -44
-15 -102 -20 -130 -5 -27 -17 -139 -26 -247 -27 -314 -50 -243 -39 121 4 124
11 260 16 301 10 90 16 136 30 260 11 86 42 248 84 435 9 39 25 112 36 164 19
87 77 279 99 326 5 11 14 40 21 65 6 24 37 105 69 180 31 74 61 146 65 159 6
21 20 47 75 141 5 8 20 38 34 66 13 29 45 84 70 122 25 39 46 74 46 79 0 8 90
143 101 153 3 3 18 25 33 49 27 43 51 74 178 235 204 257 507 569 658 677 25
18 68 51 95 74 28 24 68 52 90 63 22 12 51 30 65 41 l25 21 -440 0 -440 0 -25
-23z m-995 -805 c89 -31 133 -42 157 -42 15 0 30 -5 33 -10 9 -14 -36 -106
-75 -155 -18 -22 -41 -58 -52 -80 -12 -22 -36 -58 -54 -81 -19 -22 -49 -71
-68 -108 -19 -37 -57 -92 -83 -120 -131 -143 -257 -308 -311 -406 -45 -82 -60
-113 -66 -132 -3 -10 -10 -18 -16 -18 -16 0 -12 39 9 95 19 50 35 100 64 205
31 109 80 266 92 295 23 54 58 159 63 190 3 17 13 41 23 54 11 13 19 36 19 51
0 15 7 33 15 40 8 7 15 21 15 31 0 10 4 20 9 24 5 3 15 22 22 43 18 56 60 109
99 126 36 15 55 15 105 -2z m-548 -1194 c-3 -8 -6 -5 -6 6 -1 11 2 17 5 13 3
-3 4 -12 1 -19z m-63 -463 c40 -17 50 -41 14 -31 -13 3 -30 6 -38 6 -23 0 -43
17 -36 29 9 14 17 14 60 -4z m-3 -236 c-23 -96 -48 -221 -57 -294 -5 -39 -8
-46 -15 -30 -11 28 -11 349 1 379 12 34 60 59 78 42 11 -11 9 -28 -7 -97z
m-682 -4758 c13 -8 29 -43 51 -113 4 -15 22 -46 38 -70 16 -24 40 -63 53 -87
38 -70 45 -81 67 -104 26 -28 79 -145 87 -194 7 -40 27 -116 50 -193 8 -25 21
-81 30 -125 18 -86 54 -185 67 -185 4 0 8 -5 8 -12 0 -6 7 -19 16 -29 23 -25
44 -118 38 -164 -13 -102 -14 -104 -52 -130 -20 -14 -47 -25 -60 -25 -35 0
-86 59 -129 150 -14 30 -45 96 -69 146 -38 80 -63 141 -145 349 -11 28 -29 84
-40 125 -10 41 -23 84 -29 95 -5 11 -19 44 -30 74 -12 30 -29 66 -39 80 -36
50 -101 203 -101 237 0 23 13 52 41 94 23 33 42 60 43 60 1 0 19 7 41 15 48
17 47 17 64 6z"/>
<path d="M4903 8930 c-24 -26 -43 -52 -43 -56 0 -4 -19 -32 -42 -62 -23 -30
-47 -63 -53 -73 -5 -10 -34 -58 -64 -106 -66 -107 -191 -355 -221 -443 -13
-36 -29 -83 -37 -105 -35 -97 -93 -315 -93 -350 0 -13 -4 -34 -9 -47 -10 -24
-34 -146 -56 -278 -7 -41 -20 -113 -28 -160 -8 -47 -21 -125 -27 -175 -6 -49
-17 -110 -24 -135 -14 -46 -41 -190 -52 -270 -3 -25 -9 -63 -14 -85 -4 -22
-11 -87 -15 -145 -8 -109 -18 -169 -55 -305 -11 -44 -27 -108 -35 -143 -8 -34
-16 -66 -19 -70 -3 -5 -14 -60 -26 -123 -11 -63 -30 -154 -41 -204 -22 -98
-32 -152 -51 -260 -8 -48 -20 -81 -38 -105 -39 -50 -70 -111 -70 -138 0 -25
-31 -42 -113 -61 -70 -16 -93 -35 -106 -86 -17 -69 -12 -150 21 -295 5 -25 20
-104 32 -175 13 -72 28 -141 35 -153 18 -33 56 -54 105 -57 24 -2 49 -5 54 -9
5 -3 12 -29 16 -58 5 -48 13 -103 45 -303 7 -38 16 -74 21 -79 6 -6 10 -18 10
-28 0 -10 8 -44 19 -76 10 -31 28 -93 41 -137 22 -80 49 -151 97 -254 14 -30
36 -84 48 -120 12 -36 31 -82 42 -101 10 -19 38 -82 62 -140 24 -58 65 -150
92 -206 27 -55 49 -104 49 -108 0 -3 18 -46 41 -94 57 -123 64 -139 94 -212
15 -36 41 -94 57 -130 17 -36 37 -81 45 -100 69 -166 178 -317 278 -387 44
-30 122 -73 135 -73 5 0 34 -15 63 -34 153 -99 183 -116 199 -116 9 0 20 -4
23 -10 3 -5 22 -17 41 -26 59 -28 65 -45 54 -159 -15 -158 -40 -354 -55 -430
-8 -38 -21 -122 -30 -185 -9 -63 -23 -137 -30 -165 -12 -45 -33 -130 -55 -225
-5 -19 -20 -91 -35 -159 -14 -68 -28 -128 -31 -133 -3 -4 470 -8 1050 -8 707
0 1056 3 1056 10 0 6 -4 18 -10 28 -33 59 -100 260 -100 300 0 79 91 212 171
250 27 13 49 28 49 33 0 5 15 9 34 9 18 0 39 6 45 14 7 8 26 18 44 22 17 3 37
13 45 20 7 8 22 14 32 14 10 0 21 7 24 16 4 10 12 14 22 10 23 -9 37 3 23 20
-9 11 -7 14 10 15 30 2 30 2 96 36 142 74 161 83 181 83 12 0 24 7 28 15 3 8
14 15 24 15 11 0 25 7 32 15 19 23 31 18 19 -9 -12 -25 -37 -41 -82 -50 -24
-6 -41 -16 -81 -51 -11 -10 -15 -11 -67 -14 -27 -1 -29 -3 -15 -16 13 -14 19
-14 58 1 24 8 61 20 83 25 21 6 45 15 51 20 7 6 38 13 68 16 31 3 56 9 56 13
0 3 60 12 134 20 158 15 304 8 388 -21 32 -10 64 -19 73 -19 10 0 15 -10 15
-30 0 -21 -18 -54 -63 -112 -34 -46 -74 -101 -87 -123 -13 -22 -36 -56 -51
-75 -14 -19 -29 -49 -33 -65 -4 -17 -34 -69 -66 -115 -33 -47 -60 -90 -60 -96
0 -5 -17 -37 -38 -70 -20 -32 -47 -80 -60 -107 l-22 -47 297 2 297 3 14 60 c8
33 19 69 25 80 5 11 14 33 18 50 9 35 89 261 113 320 49 118 169 359 184 368
6 4 12 15 12 23 0 15 25 69 41 88 20 23 99 147 99 154 0 8 14 27 68 94 34 42
38 53 22 63 -10 6 -71 -56 -102 -104 -29 -43 -42 -61 -75 -107 -18 -23 -33
-46 -33 -49 0 -4 -13 -27 -30 -52 -16 -24 -30 -46 -30 -50 0 -3 -14 -26 -31
-51 -17 -25 -35 -57 -41 -71 -26 -70 -63 -141 -73 -141 -13 0 -8 59 7 77 6 7
14 27 18 45 13 51 99 299 115 333 16 33 65 160 65 168 0 3 16 40 36 84 19 43
41 92 49 108 7 17 40 86 73 155 32 69 71 150 85 180 15 30 47 86 72 125 25 38
45 74 45 79 0 5 24 45 54 90 29 44 68 108 86 141 18 33 41 69 50 80 10 11 26
36 37 55 10 19 32 55 48 80 38 57 44 67 79 126 16 27 37 60 47 74 24 32 159
265 229 396 30 56 60 108 66 115 6 8 17 30 24 49 7 19 21 49 30 65 41 70 90
166 90 175 0 5 23 56 51 112 28 57 59 130 70 163 11 33 25 69 31 79 6 11 14
31 18 45 5 14 20 58 35 96 15 39 37 111 50 160 13 50 33 125 44 169 45 170 62
318 59 494 -3 154 -25 332 -48 387 -4 11 -18 52 -30 90 -12 39 -26 74 -30 79
-13 13 -35 -40 -58 -139 -42 -181 -52 -232 -68 -330 -21 -136 -71 -393 -95
-490 -11 -44 -27 -118 -34 -165 -14 -82 -36 -174 -68 -285 -8 -27 -26 -93 -40
-145 -15 -53 -33 -109 -41 -125 -8 -17 -34 -77 -59 -135 -24 -58 -59 -132 -78
-165 -18 -33 -46 -86 -61 -118 -25 -52 -51 -78 -63 -65 -3 2 9 59 25 126 17
67 35 148 40 180 5 31 20 100 33 152 37 145 65 275 82 385 9 55 22 129 30 165
8 36 21 108 30 160 9 52 23 131 30 175 15 87 31 213 41 340 6 66 12 86 34 115
24 30 30 50 39 135 16 153 23 429 11 459 -5 15 -12 102 -15 194 -5 152 -16
268 -46 467 -6 39 -15 106 -20 150 -5 44 -13 102 -19 128 -5 26 -10 64 -10 84
0 19 -7 56 -15 82 -20 64 -55 213 -55 232 0 9 -7 22 -15 29 -8 7 -15 27 -15
46 0 18 -4 36 -10 39 -14 9 -13 -42 2 -68 7 -12 15 -44 19 -72 3 -27 11 -70
17 -95 36 -150 42 -183 42 -222 1 -23 7 -72 15 -108 10 -45 14 -129 14 -275 0
-209 -4 -252 -32 -374 -16 -66 -27 -81 -63 -81 -20 0 -21 6 -29 183 -4 100 -8
263 -10 362 -2 213 -20 466 -33 492 -5 10 -13 42 -17 70 -4 29 -10 55 -15 58
-14 9 -17 -31 -8 -106 5 -41 11 -204 14 -363 5 -234 3 -312 -10 -410 -9 -67
-19 -140 -22 -163 -6 -53 -19 -61 -49 -33 -31 29 -181 90 -222 90 -17 0 -34 4
-37 8 -3 5 -8 152 -10 328 -3 175 -10 353 -16 394 -6 41 -15 120 -20 175 -23
247 -39 372 -48 395 -10 24 -11 24 -12 -10 -1 -19 -3 -147 -5 -285 -1 -137 -8
-277 -13 -310 -6 -33 -14 -98 -17 -145 -4 -47 -13 -107 -20 -135 -7 -27 -18
-88 -25 -135 -7 -47 -16 -89 -20 -95 -4 -5 -13 -35 -20 -65 -7 -30 -16 -60
-21 -66 -6 -7 -100 -12 -281 -14 -150 -1 -309 -3 -353 -4 l-80 -1 -7 80 c-4
44 -11 148 -17 230 -5 83 -14 170 -20 195 -6 25 -18 108 -27 185 -9 77 -22
161 -30 187 -8 26 -14 58 -14 71 0 14 -7 47 -16 75 -22 66 -13 102 24 102 33
0 89 20 162 56 44 22 51 29 33 32 -12 2 -40 -6 -62 -17 -22 -12 -48 -21 -58
-21 -10 0 -27 -6 -38 -14 -31 -21 -71 -27 -83 -13 -11 14 -52 171 -52 200 0
10 -6 39 -14 65 -8 26 -19 81 -25 122 -20 133 -29 184 -45 235 -21 74 -36 142
-36 171 0 14 -6 37 -14 52 -8 15 -18 46 -21 67 -4 22 -11 45 -15 50 -4 6 -24
63 -44 127 -21 65 -41 120 -47 123 -5 4 -9 13 -9 21 0 25 -106 268 -149 344
-5 8 -30 59 -56 112 -45 93 -69 127 -81 115 -7 -7 35 -104 52 -118 8 -6 14
-18 14 -26 0 -14 7 -30 80 -188 17 -38 40 -95 50 -125 18 -54 41 -115 60 -155
15 -33 40 -104 66 -195 14 -47 32 -105 39 -130 8 -25 19 -63 25 -85 6 -22 18
-62 26 -90 13 -46 63 -346 79 -475 4 -30 9 -64 11 -75 2 -11 7 -60 11 -108 6
-84 5 -88 -15 -94 -11 -3 -23 -11 -26 -19 -3 -8 -18 -14 -34 -14 -15 0 -33 -5
-39 -11 -6 -6 -29 -15 -50 -20 -21 -4 -59 -12 -84 -18 -25 -5 -63 -17 -85 -27
-40 -17 -45 -19 -129 -53 -89 -36 -156 -54 -164 -45 -11 13 -38 141 -56 268
-9 60 -19 114 -22 120 -4 6 -13 40 -20 76 -28 132 -33 156 -47 200 -8 25 -20
77 -26 115 -7 39 -18 88 -25 110 -8 22 -17 58 -21 80 -4 22 -13 54 -21 72 -7
18 -13 46 -13 63 0 17 -5 40 -10 50 -6 11 -19 63 -30 117 -11 54 -27 116 -34
138 -7 22 -21 67 -31 100 -9 33 -23 74 -31 90 -8 17 -17 45 -20 64 -5 23 -9
29 -15 19 -8 -15 15 -135 37 -186 8 -18 14 -43 14 -56 0 -13 7 -40 15 -59 8
-20 15 -53 15 -73 0 -20 6 -50 14 -67 7 -18 21 -77 30 -132 10 -55 21 -109 26
-120 4 -11 15 -69 25 -130 9 -60 24 -150 32 -200 34 -219 63 -697 44 -733 -6
-11 -30 -24 -58 -31 -26 -7 -62 -18 -78 -25 -17 -8 -46 -17 -65 -21 -19 -4
-44 -14 -55 -21 -11 -8 -28 -14 -38 -14 -10 0 -35 -9 -57 -20 -22 -11 -54 -20
-72 -20 -25 0 -29 -3 -18 -10 40 -26 181 -4 285 45 86 40 148 57 157 43 11
-18 10 -66 -1 -106 -6 -18 -7 -42 -3 -52 4 -11 4 -59 1 -107 -4 -49 -10 -128
-14 -178 -3 -49 -10 -103 -15 -120 -5 -16 -12 -59 -16 -95 -4 -36 -13 -82 -20
-104 -8 -21 -14 -48 -14 -60 0 -53 -20 -92 -55 -109 -20 -9 -43 -17 -51 -17
-33 0 -161 -70 -201 -110 -41 -40 -93 -132 -93 -164 0 -21 -18 -30 -35 -16
-24 20 -164 39 -273 37 -90 -2 -103 0 -108 16 -8 25 -39 21 -58 -7 -9 -14 -29
-27 -48 -31 -42 -8 -97 -30 -169 -66 -31 -16 -63 -29 -72 -29 -8 0 -38 29 -68
64 -43 52 -69 72 -143 110 -66 33 -108 48 -151 52 -78 8 -105 25 -105 67 0 17
-5 50 -11 72 -6 22 -15 67 -20 100 -5 33 -16 92 -24 130 -14 69 -26 162 -47
360 -6 55 -11 301 -12 547 l-1 448 -21 0 c-21 0 -22 -4 -29 -207 -9 -233 0
-659 15 -761 8 -59 17 -152 36 -377 4 -56 17 -126 44 -250 26 -116 30 -105
-34 -105 -54 0 -57 1 -70 33 -25 59 -38 101 -57 177 -10 41 -24 95 -30 120 -6
25 -17 77 -25 115 -34 175 -35 189 -24 211 10 17 9 27 -5 48 -11 17 -19 55
-22 109 -6 82 -5 84 18 90 13 4 36 7 52 7 41 0 32 19 -13 26 -70 11 -73 21
-66 206 9 242 49 577 82 694 8 28 14 66 14 84 0 19 4 47 9 64 26 85 40 146 46
196 4 30 14 64 21 75 8 11 14 36 14 56 0 21 5 39 11 41 14 5 17 67 4 68 -5 0
-12 -12 -13 -27 -2 -15 -9 -35 -16 -43 -7 -8 -18 -33 -24 -55 -5 -22 -15 -53
-21 -70 -5 -16 -15 -57 -22 -90 -6 -33 -20 -86 -30 -118 -11 -31 -19 -65 -19
-74 0 -10 -6 -35 -14 -58 -29 -84 -45 -142 -56 -205 -7 -36 -20 -99 -30 -140
-39 -163 -66 -315 -82 -457 -9 -90 -15 -113 -27 -114 -9 0 -47 0 -86 0 -38 0
-133 -5 -210 -13 -85 -8 -144 -10 -150 -4 -18 16 -8 512 13 703 11 94 25 193
31 220 17 77 39 182 56 265 14 70 60 230 90 310 7 19 18 60 25 90 13 57 89
261 100 270 4 3 10 19 14 35 6 25 64 147 104 220 6 11 22 45 36 75 33 72 64
126 99 171 15 20 27 39 27 43 0 17 -45 -1 -56 -22 -6 -12 -23 -35 -37 -51 -14
-16 -35 -49 -47 -73 -39 -80 -78 -153 -88 -164 -5 -6 -13 -21 -17 -35 -4 -13
-19 -49 -32 -79 -14 -30 -34 -75 -45 -100 -11 -25 -23 -52 -27 -60 -4 -8 -16
-42 -25 -75 -22 -73 -55 -173 -67 -200 -15 -35 -40 -109 -49 -145 -5 -19 -16
-60 -24 -90 -61 -226 -60 -221 -86 -415 -14 -112 -33 -188 -60 -240 -11 -21
-20 -47 -20 -58 0 -10 -31 -111 -69 -225 -38 -114 -77 -245 -87 -292 -9 -47
-24 -92 -33 -102 -13 -14 -46 -17 -199 -21 -171 -5 -204 -8 -190 -23 7 -7 325
-7 337 0 18 11 41 -6 41 -31 0 -14 -7 -52 -15 -86 -45 -189 -82 -462 -100
-737 -11 -152 -10 -150 -58 -150 -23 0 -62 -5 -87 -11 -25 -6 -74 -17 -110
-24 -36 -7 -84 -19 -107 -26 -29 -9 -46 -10 -53 -3 -25 25 -55 500 -46 749 5
166 16 304 37 455 6 41 14 102 19 135 4 33 12 80 18 105 6 25 20 90 32 145 39
180 59 259 96 360 19 55 41 123 49 150 7 28 35 100 61 160 25 61 60 141 76
179 16 39 33 75 37 80 5 6 32 57 60 113 28 56 57 108 64 115 7 7 28 40 47 73
37 65 92 148 120 180 10 11 27 38 38 60 12 22 42 62 67 88 25 26 45 52 45 56
0 16 183 219 264 293 l51 48 -230 -1 -230 0 -42 -49z m3632 -2155 c0 -217 -13
-399 -36 -525 -6 -30 -17 -98 -24 -150 -28 -191 -25 -180 -54 -186 -14 -3 -44
-9 -66 -14 -75 -15 -333 -43 -349 -37 -13 5 -16 24 -16 104 0 131 -17 372 -37
511 -11 82 -13 116 -5 124 6 6 42 13 79 15 37 2 71 7 76 12 10 10 -97 22 -134
14 -25 -5 -28 -2 -38 33 -25 90 -20 95 193 170 38 13 90 35 115 48 72 36 132
62 181 76 25 8 54 20 65 27 48 32 50 25 50 -222z m-3011 -251 c19 -7 22 -86 6
-128 l-10 -26 -154 0 c-92 0 -157 -4 -161 -10 -7 -12 -15 -12 173 -10 l152 1
1 -133 c0 -106 24 -437 41 -578 2 -19 -2 -25 -17 -27 -11 -1 -87 -10 -168 -19
-181 -21 -177 -23 -202 111 -9 50 -23 115 -30 145 -30 126 -81 568 -73 637 l3
28 105 6 c162 8 317 10 334 3z m2395 -253 c15 -75 36 -420 25 -430 -11 -10
-171 -51 -202 -51 -12 0 -22 6 -22 13 0 12 54 156 72 191 9 18 28 78 48 158 6
21 15 70 20 109 6 39 13 76 17 82 10 16 31 -20 42 -72z m-3021 -138 c5 -10 12
-36 16 -58 17 -89 25 -124 50 -220 25 -98 37 -132 78 -227 12 -25 18 -53 15
-60 -6 -17 -168 -51 -217 -46 l-35 3 -3 90 c-3 81 15 251 39 378 5 26 9 61 9
77 0 36 16 80 29 80 6 0 14 -8 19 -17z m4882 -1018 c38 -19 94 -91 109 -137
17 -51 -3 -387 -29 -500 -28 -121 -63 -217 -96 -264 -83 -115 -104 -140 -166
-189 -110 -89 -109 -88 -448 -151 -41 -8 -118 -18 -170 -24 -52 -6 -129 -15
-170 -20 -172 -22 -284 -24 -366 -5 -101 23 -108 27 -128 70 -17 36 -17 37 13
98 17 34 70 115 118 179 49 64 102 136 120 160 80 108 356 381 444 439 20 13
61 42 90 64 54 40 156 105 165 105 3 0 24 13 47 28 23 16 87 49 142 74 55 25
120 55 145 66 54 24 140 28 180 7z m-2695 -231 c85 -9 125 -34 158 -99 17 -34
11 -53 -40 -127 -18 -26 -33 -53 -33 -59 0 -5 -11 -25 -24 -42 -13 -18 -27
-42 -31 -54 -3 -13 -10 -23 -15 -23 -5 0 -11 -13 -15 -28 -6 -28 -41 -59 -53
-47 -4 3 -17 41 -30 83 -13 42 -30 100 -39 127 -8 28 -20 75 -27 105 -7 30
-15 62 -19 70 -3 8 -8 33 -9 54 -3 35 0 41 22 47 14 5 43 6 65 3 22 -3 63 -7
90 -10z m-230 -26 c6 -28 21 -112 36 -193 5 -33 14 -64 20 -69 5 -6 9 -18 9
-28 0 -9 9 -37 19 -60 38 -85 59 -133 66 -158 7 -23 71 -129 85 -140 3 -3 21
-26 38 -52 50 -73 112 -108 112 -63 0 7 -22 32 -49 54 -27 23 -57 58 -66 78
-10 21 -31 55 -46 77 -37 51 -37 81 1 113 17 14 37 40 44 58 8 18 23 42 33 53
28 31 53 65 53 75 0 4 11 23 25 41 14 18 25 38 25 44 0 7 6 12 13 12 17 0 57
-74 57 -107 0 -16 6 -37 13 -48 7 -11 19 -45 26 -75 7 -30 19 -68 26 -85 20
-47 46 -127 52 -160 3 -16 11 -37 17 -45 7 -8 21 -35 31 -60 58 -135 152 -257
263 -338 119 -86 144 -94 347 -111 178 -15 390 -13 725 9 225 15 538 60 650
95 25 8 71 21 102 29 66 16 197 108 240 166 14 19 40 51 56 70 28 32 65 96
147 257 54 106 66 54 45 -202 -11 -134 -15 -163 -66 -470 -8 -49 -21 -126 -28
-170 -7 -44 -19 -109 -25 -145 -7 -36 -17 -90 -22 -120 -5 -30 -14 -73 -20
-95 -6 -22 -15 -60 -20 -85 -6 -25 -14 -54 -20 -65 -5 -11 -15 -42 -23 -70 -8
-27 -24 -86 -36 -130 -12 -44 -39 -132 -61 -195 -22 -63 -49 -144 -60 -180
-20 -70 -42 -118 -75 -166 -12 -16 -47 -76 -78 -134 -93 -169 -104 -186 -154
-226 -26 -21 -65 -55 -87 -76 -22 -21 -43 -38 -47 -38 -4 0 -32 -21 -62 -47
-59 -53 -197 -157 -284 -216 -31 -20 -67 -47 -81 -60 -15 -12 -42 -30 -62 -41
-20 -10 -41 -28 -47 -40 -6 -13 -26 -30 -46 -40 -19 -9 -38 -21 -41 -26 -3 -6
-12 -10 -20 -10 -7 0 -40 -16 -72 -36 -82 -50 -75 -46 -214 -113 -77 -37 -139
-61 -159 -61 -18 0 -41 -6 -49 -13 -9 -8 -42 -22 -73 -31 -31 -10 -62 -24 -69
-32 -6 -8 -17 -14 -24 -14 -6 0 -32 -11 -56 -25 -24 -14 -51 -28 -59 -31 -74
-32 -220 -107 -225 -114 -3 -6 -14 -10 -23 -10 -9 0 -59 -21 -112 -47 l-95
-48 -110 0 c-86 0 -117 4 -142 18 -18 9 -42 17 -55 17 -13 0 -32 6 -43 14 -11
7 -38 19 -60 26 -36 11 -91 35 -210 90 -22 10 -62 28 -90 38 -27 11 -93 40
-145 64 -52 25 -117 53 -145 64 -51 19 -172 80 -189 95 -6 5 -17 9 -25 9 -13
0 -137 57 -251 115 -25 12 -60 26 -77 30 -18 3 -35 11 -38 16 -5 7 -132 71
-218 110 -12 5 -49 25 -82 44 -33 19 -91 50 -130 69 -38 20 -97 52 -130 71
-33 19 -71 40 -85 46 -14 5 -41 21 -60 33 -19 13 -73 48 -120 79 -83 53 -162
132 -207 206 -27 44 -28 45 -43 101 -7 25 -28 83 -46 130 -19 47 -34 95 -34
106 0 11 -7 29 -15 40 -8 10 -15 37 -15 60 0 22 -3 44 -7 47 -3 4 -17 49 -29
99 -13 51 -30 116 -38 143 -24 81 -43 154 -62 245 -10 47 -35 155 -57 240 -52
207 -62 259 -50 271 7 7 29 0 64 -19 134 -72 269 -94 584 -94 241 0 372 12
590 55 109 22 284 72 400 114 178 66 328 186 401 323 40 76 98 240 114 325 6
33 18 85 26 116 8 30 14 82 14 115 0 77 9 92 42 70 13 -9 33 -26 44 -38 12
-13 38 -36 59 -53 21 -16 52 -42 70 -57 18 -16 37 -28 42 -28 5 0 22 -12 39
-27 17 -16 48 -36 70 -47 21 -10 59 -31 83 -48 24 -16 51 -28 60 -26 34 7 13
32 -58 69 -40 22 -104 61 -141 89 -37 27 -70 50 -73 50 -2 0 -22 17 -44 38
-22 20 -65 62 -97 92 -32 30 -62 62 -67 71 -5 10 -1 64 9 135 24 157 57 214
125 214 14 0 38 7 53 15 43 22 73 19 79 -7z m-577 -73 c31 -21 51 -45 74 -94
30 -61 33 -75 36 -186 3 -100 -1 -139 -22 -235 -14 -63 -30 -140 -36 -170 -7
-30 -18 -68 -26 -83 -8 -16 -14 -32 -14 -37 0 -27 -70 -154 -116 -212 -51 -63
-182 -168 -211 -168 -7 0 -30 -9 -50 -20 -21 -11 -48 -20 -60 -20 -12 0 -33
-4 -47 -10 -24 -9 -209 -51 -351 -80 -33 -6 -128 -14 -211 -17 -123 -5 -160
-3 -209 11 -55 17 -161 75 -178 100 -20 28 2 86 62 165 34 44 61 82 61 86 0 7
114 144 211 254 133 150 301 312 446 432 11 9 47 34 79 57 33 22 66 47 74 57
7 9 31 25 51 36 21 10 66 38 101 62 35 24 92 58 128 76 82 41 142 40 208 -4z
m2308 -60 c20 -8 38 -25 44 -40 8 -22 4 -33 -28 -78 -20 -28 -58 -74 -84 -101
-27 -28 -48 -54 -48 -58 0 -4 -15 -22 -34 -40 -60 -58 -176 -220 -211 -294
-19 -39 -41 -74 -50 -78 -79 -30 -185 57 -216 177 -10 41 -9 51 14 101 23 50
105 149 166 200 14 12 43 40 65 62 23 23 57 52 76 65 19 13 52 37 72 52 72 55
153 66 234 32z m-3490 -309 c73 -30 103 -64 86 -100 -13 -29 -185 -257 -207
-276 -8 -7 -15 -16 -15 -21 0 -12 -81 -119 -90 -119 -4 0 -13 -14 -20 -30 -7
-17 -35 -54 -61 -83 -27 -29 -49 -55 -49 -59 0 -5 -15 -8 -34 -8 -30 0 -47 12
-120 81 -92 86 -113 125 -101 186 23 126 403 452 526 453 14 0 52 -11 85 -24z"/>
<path d="M6855 3761 c-17 -35 -11 -61 16 -61 16 0 19 8 19 45 0 52 -13 58 -35
16z"/>
<path d="M7065 2899 c-33 -5 -73 -13 -89 -19 -16 -5 -39 -10 -52 -10 -38 0
-97 -37 -134 -84 -19 -24 -55 -55 -80 -69 -57 -30 -79 -72 -118 -227 -21 -80
-23 -457 -3 -560 27 -142 88 -282 136 -312 54 -33 57 -19 9 44 -64 82 -85 147
-91 283 -8 179 18 304 101 471 49 97 65 120 132 183 53 49 103 84 158 111 129
62 176 80 215 80 20 0 61 7 91 15 71 19 131 19 200 -1 95 -27 100 -28 100 -11
0 9 -19 22 -47 33 -27 10 -57 24 -68 31 -11 7 -30 13 -43 13 -13 0 -35 6 -50
14 -34 17 -283 27 -367 15z"/>
<path d="M7730 2715 c0 -6 23 -48 30 -55 43 -40 110 -148 110 -177 0 -8 6 -27
14 -41 26 -49 56 -130 56 -152 0 -11 7 -32 16 -45 13 -20 16 -57 17 -192 2
-158 1 -171 -22 -218 -13 -27 -32 -61 -42 -74 -25 -32 -24 -44 4 -30 29 16 47
41 76 109 32 74 42 230 17 278 -9 17 -16 46 -16 64 0 41 -27 162 -46 205 -8
17 -14 38 -14 46 0 8 -7 20 -15 27 -8 7 -15 18 -15 25 0 7 -6 18 -14 24 -7 6
-16 24 -19 39 -3 15 -14 36 -24 47 -10 11 -29 36 -42 55 -22 33 -71 78 -71 65z"/>
<path d="M9148 2352 c-16 -10 -28 -21 -28 -27 1 -27 61 -72 101 -75 40 -4 46
-1 63 25 24 36 11 48 -21 19 -14 -13 -33 -24 -42 -24 -23 0 -47 17 -38 27 5 4
13 1 18 -7 9 -12 10 -12 5 3 -3 10 -6 21 -6 23 0 3 -4 3 -9 -1 -5 -3 -12 -1
-16 5 -3 6 1 13 9 16 19 7 22 34 4 33 -7 0 -25 -8 -40 -17z m9 -44 c-3 -8 -6
-5 -6 6 -1 11 2 17 5 13 3 -3 4 -12 1 -19z"/>
<path d="M7805 1683 c-61 -30 -123 -59 -150 -69 -17 -7 -16 -9 11 -11 42 -5
124 33 182 85 32 28 20 27 -43 -5z"/>
<path d="M6880 1550 c0 -5 14 -10 30 -10 17 0 30 5 30 10 0 6 -13 10 -30 10
-16 0 -30 -4 -30 -10z"/>
<path d="M10036 8959 c10 -12 39 -32 64 -45 25 -14 70 -44 100 -69 30 -25 93
-75 139 -112 46 -38 88 -73 95 -78 330 -301 462 -439 613 -640 5 -6 24 -30 44
-55 20 -25 45 -61 56 -81 10 -20 27 -44 36 -53 9 -9 42 -58 73 -109 31 -51 74
-118 95 -151 22 -32 39 -62 39 -67 0 -4 21 -48 48 -96 26 -49 61 -124 78 -168
69 -176 96 -253 114 -320 20 -75 46 -157 60 -190 5 -11 12 -40 16 -65 3 -25
10 -50 15 -56 9 -11 20 -59 40 -168 5 -33 13 -64 16 -69 5 -9 24 -84 48 -200
8 -38 18 -73 21 -78 3 -5 10 -35 14 -67 31 -197 41 -255 76 -413 8 -37 14 -87
14 -112 0 -25 7 -80 15 -123 8 -44 24 -158 35 -254 30 -250 47 -378 58 -435 6
-27 18 -115 27 -195 9 -80 23 -180 31 -223 8 -42 14 -99 14 -125 0 -26 5 -63
10 -82 6 -19 17 -78 25 -130 8 -52 22 -129 30 -170 8 -41 24 -124 35 -185 27
-141 54 -247 99 -395 11 -36 27 -99 36 -140 9 -41 21 -84 25 -95 5 -11 14 -37
20 -57 6 -21 13 -38 16 -38 2 0 4 1379 4 3065 l0 3065 -1207 0 -1206 0 19 -21z"/>
<path d="M9010 8812 c0 -9 28 -51 47 -70 7 -8 18 -23 24 -34 6 -12 38 -57 70
-100 33 -44 59 -84 59 -89 0 -6 5 -15 10 -22 26 -31 78 -116 95 -157 11 -25
41 -87 67 -138 27 -51 48 -100 48 -108 0 -8 4 -22 10 -32 29 -53 130 -392 130
-437 0 -13 7 -43 16 -65 9 -22 19 -63 23 -92 3 -29 12 -53 19 -56 25 -8 8 146
-33 303 -7 28 -21 86 -31 130 -9 44 -23 89 -31 100 -7 11 -13 26 -13 35 0 57
-194 461 -263 548 -20 26 -46 66 -57 89 -11 23 -30 50 -43 60 -12 10 -29 29
-38 43 -37 57 -109 118 -109 92z"/>
<path d="M10520 8034 c0 -13 35 -81 58 -112 25 -33 44 -65 82 -137 12 -22 30
-53 40 -70 11 -16 24 -41 30 -55 6 -14 22 -47 35 -75 13 -27 33 -70 44 -95 11
-25 32 -74 48 -110 16 -36 35 -85 42 -110 7 -25 19 -60 27 -78 8 -18 14 -38
14 -45 0 -7 9 -29 20 -50 11 -20 20 -46 20 -57 0 -12 6 -33 13 -48 8 -15 19
-54 26 -87 8 -33 21 -87 31 -120 10 -33 21 -71 23 -85 3 -14 15 -61 27 -105
12 -44 26 -102 31 -130 48 -289 67 -393 78 -432 6 -21 11 -56 11 -77 0 -22 7
-78 15 -125 19 -111 35 -265 45 -438 5 -76 13 -187 19 -248 30 -330 44 -604
38 -778 -6 -201 -22 -455 -38 -617 -6 -58 -14 -154 -19 -215 -18 -213 -41
-371 -87 -590 -13 -66 -35 -178 -49 -249 -13 -71 -28 -134 -34 -140 -5 -5 -10
-17 -10 -26 0 -19 -37 -144 -51 -175 -5 -11 -20 -56 -33 -100 -32 -107 -136
-357 -188 -453 -23 -42 -50 -95 -61 -117 -11 -22 -29 -53 -41 -70 -24 -34 -34
-50 -60 -96 -17 -31 -127 -174 -210 -274 -18 -22 -39 -51 -46 -65 -7 -14 -35
-50 -62 -81 -26 -30 -48 -61 -48 -67 0 -6 -10 -19 -22 -29 -13 -10 -43 -43
-68 -73 -25 -30 -49 -60 -55 -66 -29 -32 -211 -298 -270 -393 -15 -23 -49 -74
-57 -86 -5 -5 -24 -41 -44 -80 -106 -204 -154 -298 -154 -301 0 -2 630 -4
1400 -4 l1400 0 0 780 0 780 -35 69 c-19 37 -35 72 -35 75 0 29 -155 188 -225
231 -47 29 -74 64 -90 116 -4 13 -13 31 -20 39 -7 8 -18 35 -25 60 -6 25 -19
63 -30 85 -46 100 -79 185 -96 250 -9 39 -20 75 -24 80 -12 17 -79 227 -101
315 -11 47 -27 110 -34 140 -8 30 -25 101 -39 158 -14 56 -35 153 -46 215 -19
105 -52 268 -64 312 -11 45 -45 236 -56 320 -6 50 -18 119 -25 155 -17 82 -45
246 -55 325 -4 33 -13 81 -19 107 -6 25 -18 127 -26 225 -9 98 -20 201 -25
228 -5 28 -9 85 -9 127 -1 42 -8 128 -15 190 -8 62 -18 151 -22 198 -3 47 -12
116 -20 153 -8 38 -14 94 -14 125 0 30 -4 81 -10 111 -5 31 -14 88 -20 126
-17 108 -38 222 -60 315 -11 47 -27 123 -35 170 -23 126 -84 349 -106 389 -4
9 -15 48 -24 86 -16 66 -53 168 -95 260 -10 22 -23 58 -30 80 -7 22 -34 81
-59 130 -26 50 -53 106 -61 125 -8 19 -27 54 -42 76 -15 23 -28 46 -28 52 0 5
-7 15 -15 22 -8 7 -25 32 -37 56 -12 24 -25 44 -30 44 -4 0 -8 4 -8 10 0 10
-90 130 -97 130 -1 0 -3 -3 -3 -6z"/>
<path d="M7573 6403 c-10 -15 -20 -30 -23 -33 -23 -22 -75 -129 -66 -137 9 -9
51 41 73 87 9 19 22 42 28 50 18 23 25 49 15 55 -5 3 -17 -7 -27 -22z"/>
<path d="M5783 6245 c16 -14 33 -22 40 -18 7 4 3 10 -11 16 -12 6 -22 14 -22
19 0 4 -8 8 -17 8 -14 -1 -12 -6 10 -25z"/>
<path d="M885 5260 c8 -13 35 -13 55 0 11 7 5 10 -23 10 -23 0 -36 -4 -32 -10z"/>
<path d="M820 5240 c0 -5 7 -10 15 -10 8 0 15 5 15 10 0 6 -7 10 -15 10 -8 0
-15 -4 -15 -10z"/>
<path d="M11866 4010 c-4 -9 -1 -65 5 -125 6 -61 15 -144 19 -185 9 -85 25
-184 46 -281 8 -37 14 -80 14 -95 0 -16 5 -45 10 -64 16 -52 41 -187 47 -250
3 -30 12 -67 19 -82 8 -15 14 -37 14 -49 0 -22 16 -90 45 -194 8 -27 21 -84
30 -125 9 -41 23 -95 31 -120 8 -25 14 -54 14 -66 0 -11 5 -25 11 -31 6 -6 15
-29 19 -50 5 -21 20 -69 34 -108 14 -38 26 -78 26 -87 0 -10 7 -34 16 -55 32
-75 42 -99 74 -183 17 -47 44 -110 58 -140 l27 -55 3 45 c3 44 -12 113 -31
138 -10 13 -62 156 -77 211 -4 18 -13 38 -19 44 -6 6 -11 23 -11 37 0 14 -6
34 -13 45 -8 11 -22 54 -31 95 -17 73 -30 119 -56 190 -7 19 -16 53 -20 75 -4
22 -13 54 -18 70 -6 17 -18 66 -27 110 -9 44 -23 105 -30 135 -7 30 -23 100
-35 155 -12 55 -27 125 -35 155 -15 60 -24 111 -34 210 -3 36 -10 71 -14 77
-4 7 -15 54 -23 105 -8 51 -21 132 -29 181 -8 48 -19 96 -25 107 -5 10 -10 45
-11 77 0 65 -13 108 -23 83z"/>
<path d="M2350 2003 c0 -32 4 -43 15 -43 18 0 18 -4 0 45 l-14 40 -1 -42z"/>
<path d="M4896 1499 c-3 -17 -6 -49 -6 -70 0 -21 -5 -50 -11 -66 -11 -28 -14
-49 -43 -333 -8 -80 -19 -176 -25 -215 -14 -98 -30 -281 -41 -480 -5 -93 -12
-207 -15 -253 l-6 -82 30 0 31 0 0 108 c0 59 5 139 11 177 5 39 14 156 20 260
21 415 27 502 38 541 6 22 12 94 14 160 1 65 6 125 11 133 13 21 21 151 9 151
-6 0 -13 -14 -17 -31z"/>
<path d="M5139 1198 c0 -2 -2 -77 -5 -168 -3 -91 -11 -198 -19 -239 -8 -40
-15 -91 -15 -114 0 -74 -32 -219 -90 -407 -16 -52 -37 -122 -45 -155 -9 -33
-23 -72 -31 -87 l-15 -28 80 0 c67 0 81 3 85 18 3 9 10 112 16 228 6 139 15
226 25 254 8 23 15 60 15 82 0 22 5 49 12 61 16 28 29 316 21 455 -4 76 -9
102 -19 102 -8 0 -14 -1 -15 -2z"/>
<path d="M4284 1083 c-3 -16 -10 -41 -14 -58 -5 -16 -14 -122 -20 -235 -21
-420 -40 -722 -46 -756 l-6 -34 92 0 92 0 -6 138 c-4 75 -11 317 -16 538 -5
220 -12 408 -16 417 -3 10 -17 17 -30 17 -18 0 -25 -7 -30 -27z"/>
<path d="M7743 769 c-25 -9 -30 -19 -10 -19 15 0 43 17 37 23 -3 3 -15 1 -27
-4z"/>
<path d="M7665 740 c-3 -5 -1 -10 4 -10 6 0 11 5 11 10 0 6 -2 10 -4 10 -3 0
-8 -4 -11 -10z"/>
<path d="M9505 473 c-15 -27 -33 -55 -40 -63 -6 -8 -22 -40 -34 -70 -12 -30
-39 -82 -61 -115 -21 -33 -48 -89 -60 -125 -12 -36 -26 -69 -31 -74 -18 -19
-8 -26 39 -26 45 0 49 2 60 33 7 18 12 39 12 46 0 7 8 31 19 54 10 23 22 58
25 77 7 33 22 72 80 200 49 110 43 153 -9 63z"/>
</g>
</svg>
